<?xml version="1.0" encoding="utf-8"?>
<!-- Svg Vector Icons : http://www.onlinewebfonts.com/icon -->
<!DOCTYPE svg PUBLIC "-//W3C//DTD SVG 1.1//EN" "http://www.w3.org/Graphics/SVG/1.1/DTD/svg11.dtd">
<svg version="1.1" xmlns="http://www.w3.org/2000/svg" xmlns:xlink="http://www.w3.org/1999/xlink" x="0px" y="0px" viewBox="0 0 1000 1000" enable-background="new 0 0 1000 1000" xml:space="preserve">
<metadata> Svg Vector Icons : http://www.onlinewebfonts.com/icon </metadata>
<g><path d="M774.5,449.5l-118.7-43.9l-74.7-136.2c-4.4-4.4-8.8-8.8-8.8-13.2c-4.4-4.4-4.4-4.4-8.8-8.8c-30.8-30.8-74.7-35.2-114.3-17.6L242.8,300c-17.6,4.4-30.8,22-35.2,39.6L190,502.2c-4.4,26.4,17.6,52.7,43.9,57.1h4.4c26.4,0,48.3-17.6,48.3-43.9l13.2-127.4l79.1-26.4c-13.2,30.8-26.4,61.5-35.2,83.5c-17.6,39.6-17.6,92.3,4.4,136.2L212,897.7c-13.2,30.8,0,70.3,30.8,83.5c13.2-4.4,22,0,30.8,0c26.4,0,48.3-13.2,57.1-39.6l101.1-228.5C493.3,823,563.6,950.4,563.6,954.8c13.2,22,35.2,35.2,57.1,35.2c8.8,0,22-4.4,30.8-8.8c30.8-17.6,43.9-57.1,26.4-87.9c-4.4-8.8-109.9-206.5-180.2-325.2l61.5-136.2l22,39.6c4.4,13.2,17.6,17.6,26.4,22l136.2,52.7c4.4,0,13.2,4.4,17.6,4.4c22,0,39.6-13.2,48.3-35.2C814.1,489,800.9,458.3,774.5,449.5 M563.6,203.4c52.7,0,96.7-43.9,96.7-96.7c0-52.7-43.9-96.7-96.7-96.7c-52.7,0-96.7,43.9-96.7,96.7C466.9,159.4,510.9,203.4,563.6,203.4"/></g>
</svg>